<svg xmlns="http://www.w3.org/2000/svg" viewBox="0 0 1536 1024" role="img" aria-labelledby="title desc">
  <title id="title">Federated Detection POC</title>
  <desc id="desc">Banner for a privacy-preserving object detection research repository built around federated learning.</desc>
  <defs>
    <linearGradient id="bg" x1="0%" y1="0%" x2="100%" y2="100%">
      <stop offset="0%" stop-color="#071225"/>
      <stop offset="60%" stop-color="#081936"/>
      <stop offset="100%" stop-color="#0c0b2a"/>
    </linearGradient>
    <linearGradient id="brand" x1="0%" y1="0%" x2="100%" y2="0%">
      <stop offset="0%" stop-color="#4bc7ff"/>
      <stop offset="52%" stop-color="#5c8cff"/>
      <stop offset="100%" stop-color="#b05cff"/>
    </linearGradient>
    <linearGradient id="cyanGlow" x1="0%" y1="0%" x2="100%" y2="100%">
      <stop offset="0%" stop-color="#3fe7ff"/>
      <stop offset="100%" stop-color="#6f79ff"/>
    </linearGradient>
    <linearGradient id="purpleGlow" x1="0%" y1="0%" x2="100%" y2="100%">
      <stop offset="0%" stop-color="#6b7dff"/>
      <stop offset="100%" stop-color="#bb64ff"/>
    </linearGradient>
    <filter id="softGlow" x="-50%" y="-50%" width="200%" height="200%">
      <feGaussianBlur stdDeviation="12" result="blur"/>
      <feMerge>
        <feMergeNode in="blur"/>
        <feMergeNode in="SourceGraphic"/>
      </feMerge>
    </filter>
    <pattern id="waveDots" width="20" height="20" patternUnits="userSpaceOnUse">
      <circle cx="4" cy="4" r="2" fill="#1e82ff" opacity="0.35"/>
    </pattern>
    <style>
      .panel { fill: rgba(8, 17, 40, 0.78); stroke: #2c87ff; stroke-width: 2; }
      .panel-green { fill: rgba(7, 23, 27, 0.78); stroke: #37d08b; stroke-width: 2; }
      .panel-purple { fill: rgba(18, 13, 36, 0.78); stroke: #7a63ff; stroke-width: 2; }
      .mini { fill: rgba(255,255,255,0.08); stroke: rgba(255,255,255,0.14); stroke-width: 1.4; }
      .pill { fill: rgba(9, 20, 50, 0.85); stroke: #2f8cff; stroke-width: 1.8; }
      .caption { font-family: Inter, Arial, sans-serif; fill: #eef3ff; }
      .muted { font-family: Inter, Arial, sans-serif; fill: #c9d2eb; }
      .small { font-family: Inter, Arial, sans-serif; fill: #9cd7ff; }
      .tiny { font-family: Inter, Arial, sans-serif; fill: #d9e1ff; }
    </style>
  </defs>

  <rect width="1536" height="1024" fill="url(#bg)"/>
  <ellipse cx="1280" cy="900" rx="420" ry="180" fill="#5f2cff" opacity="0.08" filter="url(#softGlow)"/>
  <ellipse cx="250" cy="940" rx="420" ry="160" fill="#00a6ff" opacity="0.09" filter="url(#softGlow)"/>

  <g opacity="0.55">
    <path d="M0 860 C130 800, 250 840, 360 900 C500 980, 640 980, 760 920 C900 850, 1010 840, 1130 890 C1250 940, 1380 940, 1536 870 L1536 1024 L0 1024 Z" fill="url(#waveDots)"/>
    <path d="M0 905 C120 870, 255 885, 360 930 C500 990, 640 1002, 780 950 C920 900, 1050 892, 1185 938 C1305 978, 1425 980, 1536 948 L1536 1024 L0 1024 Z" fill="url(#waveDots)" opacity="0.75"/>
  </g>

  <g transform="translate(86 72)">
    <circle cx="54" cy="72" r="18" fill="url(#cyanGlow)"/>
    <circle cx="22" cy="18" r="12" fill="none" stroke="#49c4ff" stroke-width="6"/>
    <circle cx="96" cy="18" r="12" fill="none" stroke="#49c4ff" stroke-width="6"/>
    <circle cx="112" cy="94" r="12" fill="none" stroke="#7d7cff" stroke-width="6"/>
    <circle cx="28" cy="122" r="12" fill="none" stroke="#8e5bff" stroke-width="6"/>
    <circle cx="-10" cy="72" r="12" fill="none" stroke="#4d90ff" stroke-width="6"/>
    <line x1="22" y1="18" x2="54" y2="72" stroke="#6aa9ff" stroke-width="5"/>
    <line x1="96" y1="18" x2="54" y2="72" stroke="#6aa9ff" stroke-width="5"/>
    <line x1="-10" y1="72" x2="54" y2="72" stroke="#6aa9ff" stroke-width="5"/>
    <line x1="54" y1="72" x2="112" y2="94" stroke="#6aa9ff" stroke-width="5"/>
    <line x1="54" y1="72" x2="28" y2="122" stroke="#6aa9ff" stroke-width="5"/>
  </g>

  <text x="262" y="132" class="caption" font-size="82" font-weight="700">Federated</text>
  <text x="706" y="132" font-family="Inter, Arial, sans-serif" font-size="82" font-weight="700" fill="url(#brand)">Detection</text>
  <text x="1130" y="132" class="caption" font-size="82" font-weight="700">POC</text>
  <text x="265" y="196" class="muted" font-size="34">Privacy-Preserving Object Detection with Federated Learning</text>

  <g transform="translate(266 228)">
    <rect class="pill" rx="28" ry="28" width="506" height="58"/>
    <circle cx="46" cy="29" r="10" fill="none" stroke="#ff6a3d" stroke-width="4"/>
    <circle cx="46" cy="29" r="2.5" fill="#ff6a3d"/>
    <text x="68" y="38" class="caption" font-size="22">PyTorch</text>
    <circle cx="203" cy="29" r="10" fill="#fff"/>
    <circle cx="192" cy="22" r="6" fill="#fff" opacity="0.82"/>
    <circle cx="214" cy="22" r="6" fill="#fff" opacity="0.82"/>
    <circle cx="192" cy="36" r="6" fill="#fff" opacity="0.82"/>
    <circle cx="214" cy="36" r="6" fill="#fff" opacity="0.82"/>
    <text x="227" y="38" class="caption" font-size="22">Flower</text>
    <path d="M360 23 C368 8, 391 10, 396 25 C386 30, 381 37, 377 46 C362 43, 354 31, 360 23 Z" fill="#00b8ff"/>
    <path d="M405 23 C397 8, 374 10, 369 25 C379 30, 384 37, 388 46 C403 43, 411 31, 405 23 Z" fill="#3098ff"/>
    <path d="M383 52 C383 37, 393 27, 407 27 C413 40, 408 56, 394 59 C389 58, 385 56, 383 52 Z" fill="#5281ff"/>
    <text x="416" y="38" class="caption" font-size="22">YOLOv8</text>
  </g>

  <g transform="translate(66 386)">
    <rect width="330" height="102" rx="18" class="panel"/>
    <text x="42" y="40" class="caption" font-size="18">|||</text>
    <text x="74" y="40" class="caption" font-size="22" font-weight="700">Client 1</text>
    <text x="74" y="74" class="muted" font-size="18">Local Data</text>
    <rect x="170" y="14" width="128" height="70" rx="10" class="mini"/>
    <rect x="174" y="18" width="120" height="62" rx="8" fill="#737f8e"/>
    <rect x="174" y="54" width="120" height="26" rx="0" fill="#505a68"/>
    <rect x="178" y="35" width="16" height="32" fill="#949fb3"/>
    <rect x="196" y="32" width="20" height="35" fill="#8f97a7"/>
    <rect x="218" y="26" width="14" height="41" fill="#a5b1c5"/>
    <rect x="235" y="34" width="18" height="33" fill="#9099aa"/>
    <circle cx="293" cy="73" r="16" fill="#0d6cff"/>
    <ellipse cx="293" cy="59" rx="16" ry="6" fill="#0e7fff"/>
    <ellipse cx="293" cy="67" rx="16" ry="6" fill="#1274ef"/>
  </g>

  <g transform="translate(66 528)">
    <rect width="330" height="102" rx="18" class="panel-green"/>
    <text x="42" y="40" class="caption" font-size="18">|||</text>
    <text x="74" y="40" class="caption" font-size="22" font-weight="700">Client 2</text>
    <text x="74" y="74" class="muted" font-size="18">Local Data</text>
    <rect x="170" y="14" width="128" height="70" rx="10" class="mini"/>
    <rect x="174" y="18" width="120" height="62" rx="8" fill="#6f7986"/>
    <rect x="174" y="54" width="120" height="26" rx="0" fill="#4a535f"/>
    <rect x="178" y="34" width="16" height="33" fill="#8e9cb0"/>
    <rect x="198" y="29" width="16" height="38" fill="#8a95aa"/>
    <rect x="216" y="27" width="18" height="40" fill="#a1aec2"/>
    <rect x="237" y="38" width="15" height="29" fill="#8d97a8"/>
    <circle cx="293" cy="73" r="16" fill="#27b87b"/>
    <ellipse cx="293" cy="59" rx="16" ry="6" fill="#35d28f"/>
    <ellipse cx="293" cy="67" rx="16" ry="6" fill="#2dc385"/>
  </g>

  <g transform="translate(66 670)">
    <rect width="330" height="102" rx="18" class="panel-purple"/>
    <text x="42" y="40" class="caption" font-size="18">|||</text>
    <text x="74" y="40" class="caption" font-size="22" font-weight="700">Client N</text>
    <text x="74" y="74" class="muted" font-size="18">Local Data</text>
    <rect x="170" y="14" width="128" height="70" rx="10" class="mini"/>
    <rect x="174" y="18" width="120" height="62" rx="8" fill="#687181"/>
    <rect x="174" y="54" width="120" height="26" rx="0" fill="#444c5c"/>
    <rect x="178" y="34" width="14" height="33" fill="#8796aa"/>
    <rect x="195" y="37" width="15" height="30" fill="#8e9cb1"/>
    <rect x="213" y="27" width="18" height="40" fill="#9ba7bc"/>
    <rect x="234" y="32" width="18" height="35" fill="#8f9aaf"/>
    <circle cx="293" cy="73" r="16" fill="#7254ff"/>
    <ellipse cx="293" cy="59" rx="16" ry="6" fill="#8467ff"/>
    <ellipse cx="293" cy="67" rx="16" ry="6" fill="#7a5bff"/>
  </g>

  <g transform="translate(396 437)">
    <circle cx="0" cy="0" r="9" fill="#2b8dff"/>
    <line x1="0" y1="0" x2="136" y2="0" stroke="#2b8dff" stroke-width="4" stroke-dasharray="10 8"/>
    <text x="50" y="54" class="small" font-size="20">Local Training</text>
    <g transform="translate(94 -21)">
      <circle cx="0" cy="0" r="7" fill="none" stroke="#4bc7ff" stroke-width="3"/>
      <circle cx="42" cy="0" r="7" fill="none" stroke="#4bc7ff" stroke-width="3"/>
      <circle cx="20" cy="34" r="7" fill="none" stroke="#587dff" stroke-width="3"/>
      <line x1="0" y1="0" x2="20" y2="34" stroke="#53b5ff" stroke-width="3"/>
      <line x1="42" y1="0" x2="20" y2="34" stroke="#53b5ff" stroke-width="3"/>
      <line x1="0" y1="0" x2="42" y2="0" stroke="#53b5ff" stroke-width="3"/>
    </g>
    <path d="M136 0 L176 0 L205 20" fill="none" stroke="#2b8dff" stroke-width="4" stroke-dasharray="10 8"/>
    <path d="M198 12 L209 20 L204 33" fill="none" stroke="#36a8ff" stroke-width="4" stroke-linecap="round" stroke-linejoin="round"/>
  </g>

  <g transform="translate(396 579)">
    <circle cx="0" cy="0" r="9" fill="#33c98a"/>
    <line x1="0" y1="0" x2="136" y2="0" stroke="#33c98a" stroke-width="4" stroke-dasharray="10 8"/>
    <text x="50" y="54" fill="#7af2b7" font-family="Inter, Arial, sans-serif" font-size="20">Local Training</text>
    <g transform="translate(94 -21)">
      <circle cx="0" cy="0" r="7" fill="none" stroke="#4fd59e" stroke-width="3"/>
      <circle cx="42" cy="0" r="7" fill="none" stroke="#4fd59e" stroke-width="3"/>
      <circle cx="20" cy="34" r="7" fill="none" stroke="#4fd59e" stroke-width="3"/>
      <line x1="0" y1="0" x2="20" y2="34" stroke="#4fd59e" stroke-width="3"/>
      <line x1="42" y1="0" x2="20" y2="34" stroke="#4fd59e" stroke-width="3"/>
      <line x1="0" y1="0" x2="42" y2="0" stroke="#4fd59e" stroke-width="3"/>
    </g>
    <path d="M136 0 L176 0 L206 0" fill="none" stroke="#33c98a" stroke-width="4" stroke-dasharray="10 8"/>
    <path d="M196 -10 L209 0 L196 10" fill="none" stroke="#38d391" stroke-width="4" stroke-linecap="round" stroke-linejoin="round"/>
  </g>

  <g transform="translate(396 721)">
    <circle cx="0" cy="0" r="9" fill="#7a5bff"/>
    <line x1="0" y1="0" x2="136" y2="0" stroke="#7a5bff" stroke-width="4" stroke-dasharray="10 8"/>
    <text x="50" y="54" fill="#b993ff" font-family="Inter, Arial, sans-serif" font-size="20">Local Training</text>
    <g transform="translate(94 -21)">
      <circle cx="0" cy="0" r="7" fill="none" stroke="#956aff" stroke-width="3"/>
      <circle cx="42" cy="0" r="7" fill="none" stroke="#956aff" stroke-width="3"/>
      <circle cx="20" cy="34" r="7" fill="none" stroke="#956aff" stroke-width="3"/>
      <line x1="0" y1="0" x2="20" y2="34" stroke="#956aff" stroke-width="3"/>
      <line x1="42" y1="0" x2="20" y2="34" stroke="#956aff" stroke-width="3"/>
      <line x1="0" y1="0" x2="42" y2="0" stroke="#956aff" stroke-width="3"/>
    </g>
    <path d="M136 0 L176 0 L205 -18" fill="none" stroke="#7a5bff" stroke-width="4" stroke-dasharray="10 8"/>
    <path d="M194 -26 L208 -18 L201 -4" fill="none" stroke="#9c7dff" stroke-width="4" stroke-linecap="round" stroke-linejoin="round"/>
  </g>

  <g transform="translate(625 438)">
    <circle cx="111" cy="136" r="92" fill="rgba(17,26,64,0.7)" stroke="url(#brand)" stroke-width="5"/>
    <g transform="translate(111 136)">
      <circle cx="0" cy="0" r="18" fill="url(#purpleGlow)"/>
      <circle cx="-22" cy="-42" r="11" fill="none" stroke="#64c9ff" stroke-width="5"/>
      <circle cx="45" cy="-34" r="11" fill="none" stroke="#8ea0ff" stroke-width="5"/>
      <circle cx="44" cy="34" r="11" fill="none" stroke="#8259ff" stroke-width="5"/>
      <circle cx="-18" cy="44" r="11" fill="none" stroke="#5a95ff" stroke-width="5"/>
      <line x1="0" y1="0" x2="-22" y2="-42" stroke="#6ab4ff" stroke-width="5"/>
      <line x1="0" y1="0" x2="45" y2="-34" stroke="#7f91ff" stroke-width="5"/>
      <line x1="0" y1="0" x2="44" y2="34" stroke="#8d66ff" stroke-width="5"/>
      <line x1="0" y1="0" x2="-18" y2="44" stroke="#67a5ff" stroke-width="5"/>
      <line x1="-22" y1="-42" x2="-18" y2="44" stroke="#5eb8ff" stroke-width="4"/>
      <line x1="-22" y1="-42" x2="45" y2="-34" stroke="#6fb3ff" stroke-width="4"/>
      <line x1="45" y1="-34" x2="44" y2="34" stroke="#8977ff" stroke-width="4"/>
      <line x1="-18" y1="44" x2="44" y2="34" stroke="#7b89ff" stroke-width="4"/>
    </g>
    <text x="17" y="229" class="caption" font-size="20">Federated Aggregation</text>
    <text x="78" y="258" class="muted" font-size="18">(Flower)</text>
  </g>

  <g transform="translate(838 574)">
    <line x1="0" y1="0" x2="56" y2="0" stroke="#9c72ff" stroke-width="4"/>
    <path d="M46 -10 L60 0 L46 10" fill="none" stroke="#9c72ff" stroke-width="4" stroke-linecap="round" stroke-linejoin="round"/>
  </g>

  <g transform="translate(897 459)">
    <rect width="158" height="168" rx="20" fill="rgba(16, 20, 54, 0.78)" stroke="#d77cff" stroke-width="2.4"/>
    <text x="29" y="42" class="caption" font-size="18">Global Model</text>
    <path d="M79 84 L118 104 L79 125 L40 104 Z" fill="#6bb4ff"/>
    <path d="M79 110 L118 130 L79 151 L40 130 Z" fill="#5c82ff"/>
    <path d="M79 136 L118 156 L79 177 L40 156 Z" fill="#6e56ff"/>
  </g>

  <g transform="translate(1100 382)">
    <rect width="383" height="308" rx="22" fill="rgba(255,255,255,0.09)" stroke="#d0e7ff" stroke-width="2"/>
    <rect x="10" y="10" width="363" height="288" rx="18" fill="#727b86"/>
    <rect x="10" y="171" width="363" height="127" rx="0" fill="#4f5661"/>
    <rect x="38" y="124" width="92" height="120" fill="none" stroke="#1eb2ff" stroke-width="3"/>
    <rect x="163" y="120" width="104" height="121" fill="none" stroke="#b45cff" stroke-width="3"/>
    <rect x="277" y="138" width="88" height="102" fill="none" stroke="#1f9cff" stroke-width="3"/>
    <rect x="324" y="149" width="36" height="98" fill="none" stroke="#3de08a" stroke-width="3"/>
    <rect x="44" y="99" width="60" height="28" rx="6" fill="#1399ff"/>
    <rect x="155" y="86" width="67" height="28" rx="6" fill="#a459ff"/>
    <rect x="280" y="104" width="61" height="28" rx="6" fill="#1589ff"/>
    <rect x="321" y="110" width="78" height="28" rx="6" fill="#24bf7a"/>
    <text x="49" y="118" class="tiny" font-size="16">car 0.92</text>
    <text x="161" y="105" class="tiny" font-size="16">bus 0.89</text>
    <text x="286" y="123" class="tiny" font-size="16">car 0.95</text>
    <text x="327" y="129" class="tiny" font-size="16">person 0.91</text>
  </g>

  <g transform="translate(108 886)">
    <rect width="1320" height="108" rx="24" fill="rgba(10, 18, 46, 0.84)" stroke="rgba(115, 164, 255, 0.45)" stroke-width="1.6"/>
    <g transform="translate(36 28)">
      <path d="M22 0 L44 8 L44 40 C44 54 33 64 22 68 C11 64 0 54 0 40 L0 8 Z" fill="none" stroke="#55aaff" stroke-width="4"/>
      <rect x="14" y="24" width="16" height="14" rx="2" fill="none" stroke="#55aaff" stroke-width="3"/>
      <path d="M18 24 C18 16 26 16 26 24" fill="none" stroke="#55aaff" stroke-width="3"/>
      <text x="68" y="22" class="caption" font-size="18" font-weight="700">Privacy-Preserving</text>
      <text x="68" y="50" class="muted" font-size="16">Keep data local</text>
    </g>
    <line x1="335" y1="23" x2="335" y2="84" stroke="rgba(255,255,255,0.18)" stroke-width="1.5"/>
    <g transform="translate(375 28)">
      <g transform="translate(0 4)">
        <circle cx="12" cy="8" r="7" fill="none" stroke="#6bd991" stroke-width="3"/>
        <circle cx="42" cy="8" r="7" fill="none" stroke="#6bd991" stroke-width="3"/>
        <circle cx="27" cy="34" r="7" fill="none" stroke="#6bd991" stroke-width="3"/>
        <line x1="12" y1="8" x2="27" y2="34" stroke="#6bd991" stroke-width="3"/>
        <line x1="42" y1="8" x2="27" y2="34" stroke="#6bd991" stroke-width="3"/>
        <line x1="12" y1="8" x2="42" y2="8" stroke="#6bd991" stroke-width="3"/>
      </g>
      <text x="74" y="22" class="caption" font-size="18" font-weight="700">Federated Learning</text>
      <text x="74" y="50" class="muted" font-size="16">Train together, not together</text>
    </g>
    <line x1="744" y1="23" x2="744" y2="84" stroke="rgba(255,255,255,0.18)" stroke-width="1.5"/>
    <g transform="translate(780 28)">
      <circle cx="22" cy="22" r="20" fill="none" stroke="#b36cff" stroke-width="4"/>
      <circle cx="22" cy="22" r="7" fill="none" stroke="#b36cff" stroke-width="4"/>
      <line x1="22" y1="0" x2="22" y2="12" stroke="#b36cff" stroke-width="4"/>
      <line x1="22" y1="32" x2="22" y2="44" stroke="#b36cff" stroke-width="4"/>
      <line x1="0" y1="22" x2="12" y2="22" stroke="#b36cff" stroke-width="4"/>
      <line x1="32" y1="22" x2="44" y2="22" stroke="#b36cff" stroke-width="4"/>
      <text x="74" y="22" class="caption" font-size="18" font-weight="700">Object Detection</text>
      <text x="74" y="50" class="muted" font-size="16">Powered by YOLOv8</text>
    </g>
    <line x1="1078" y1="23" x2="1078" y2="84" stroke="rgba(255,255,255,0.18)" stroke-width="1.5"/>
    <g transform="translate(1116 28)">
      <path d="M18 0 L0 30 H16 L10 54 L38 18 H22 Z" fill="#4e7eff"/>
      <text x="60" y="22" class="caption" font-size="18" font-weight="700">Lightweight &amp; Extensible</text>
      <text x="60" y="50" class="muted" font-size="16">Built with Flower &amp; PyTorch</text>
    </g>
  </g>
</svg>
